<svg width="58" height="53" viewBox="0 0 58 53" fill="none" xmlns="http://www.w3.org/2000/svg">
<g clip-path="url(#clip0_34_255)">
<path d="M29.879 0.753819C29.7212 0.410576 29.378 0.190572 29.0002 0.190491C28.6224 0.190409 28.2789 0.410169 28.1211 0.753411C25.6877 6.04581 21.3721 12.8577 21.3721 16.5626C21.3721 20.7754 24.7871 24.1905 29 24.1905C33.2128 24.1905 36.6279 20.7753 36.6279 16.5626C36.628 12.858 32.3125 6.04622 29.879 0.753819ZM28.6742 21.7605C25.8558 21.7605 23.563 19.4677 23.563 16.6493C23.563 16.0871 24.0189 15.6312 24.5811 15.6312C25.1434 15.6312 25.5993 16.0871 25.5993 16.6493C25.5993 18.3448 26.9787 19.7242 28.6742 19.7242C29.2364 19.7242 29.6923 20.1801 29.6923 20.7423C29.6923 21.3047 29.2364 21.7605 28.6742 21.7605Z" fill="#DDDDDD"/>
</g>
<path d="M4.48242 47.3897C6.28125 47.3897 7.61719 46.3878 7.89844 44.8409V44.8292H6.83203L6.82031 44.8409C6.55664 45.8135 5.66016 46.4171 4.48242 46.4171C2.85352 46.4171 1.83398 45.087 1.83398 42.9717V42.96C1.83398 40.8448 2.85352 39.5089 4.47656 39.5089C5.64258 39.5089 6.54492 40.1944 6.82617 41.2784L6.83203 41.2901H7.89258L7.89844 41.2784C7.64648 39.6553 6.25781 38.5362 4.47656 38.5362C2.17969 38.5362 0.75 40.2354 0.75 42.96V42.9717C0.75 45.6905 2.18555 47.3897 4.48242 47.3897ZM9.59766 47.1905H10.6172V43.4522C10.6172 42.3448 11.2559 41.6651 12.2637 41.6651C13.2715 41.6651 13.7402 42.21 13.7402 43.3467V47.1905H14.7598V43.1006C14.7598 41.6006 13.9688 40.7628 12.5508 40.7628C11.6191 40.7628 11.0273 41.1553 10.7109 41.8233H10.6172V38.3663H9.59766V47.1905ZM19.2012 47.3018C21 47.3018 22.1133 46.0596 22.1133 44.0381V44.0264C22.1133 41.9991 21 40.7628 19.2012 40.7628C17.4023 40.7628 16.2891 41.9991 16.2891 44.0264V44.0381C16.2891 46.0596 17.4023 47.3018 19.2012 47.3018ZM19.2012 46.3995C18.0059 46.3995 17.332 45.5264 17.332 44.0381V44.0264C17.332 42.5323 18.0059 41.6651 19.2012 41.6651C20.3965 41.6651 21.0703 42.5323 21.0703 44.0264V44.0381C21.0703 45.5264 20.3965 46.3995 19.2012 46.3995ZM26.2793 47.3018C27.7969 47.3018 28.6465 46.4874 28.9043 45.3448L28.916 45.2803L27.9082 45.2862L27.8965 45.3214C27.6621 46.0245 27.123 46.3995 26.2734 46.3995C25.1484 46.3995 24.4219 45.4678 24.4219 44.0147V44.003C24.4219 42.5792 25.1367 41.6651 26.2734 41.6651C27.1816 41.6651 27.7441 42.169 27.9023 42.7901L27.9082 42.8077H28.9219L28.916 42.7725C28.7285 41.6475 27.8086 40.7628 26.2734 40.7628C24.5039 40.7628 23.3789 42.0401 23.3789 44.003V44.0147C23.3789 46.0186 24.5098 47.3018 26.2793 47.3018ZM33.0059 47.3018C34.8047 47.3018 35.918 46.0596 35.918 44.0381V44.0264C35.918 41.9991 34.8047 40.7628 33.0059 40.7628C31.207 40.7628 30.0938 41.9991 30.0938 44.0264V44.0381C30.0938 46.0596 31.207 47.3018 33.0059 47.3018ZM33.0059 46.3995C31.8105 46.3995 31.1367 45.5264 31.1367 44.0381V44.0264C31.1367 42.5323 31.8105 41.6651 33.0059 41.6651C34.2012 41.6651 34.875 42.5323 34.875 44.0264V44.0381C34.875 45.5264 34.2012 46.3995 33.0059 46.3995ZM37.5586 47.1905H38.5781V38.3663H37.5586V47.1905ZM42.2695 47.3018C43.1191 47.3018 43.7812 46.9327 44.1797 46.2589H44.2734V47.1905H45.293V42.8663C45.293 41.5538 44.4316 40.7628 42.8906 40.7628C41.543 40.7628 40.582 41.4307 40.418 42.421L40.4121 42.4561H41.4316L41.4375 42.4385C41.6016 41.9464 42.0996 41.6651 42.8555 41.6651C43.7988 41.6651 44.2734 42.087 44.2734 42.8663V43.4405L42.4629 43.5518C40.9922 43.6397 40.1602 44.2901 40.1602 45.4151V45.4268C40.1602 46.5753 41.0684 47.3018 42.2695 47.3018ZM41.2031 45.4034V45.3917C41.2031 44.7647 41.625 44.4249 42.5859 44.3663L44.2734 44.2608V44.835C44.2734 45.7374 43.5176 46.4171 42.4805 46.4171C41.748 46.4171 41.2031 46.0421 41.2031 45.4034ZM49.4004 47.2374C49.5996 47.2374 49.793 47.2139 49.9922 47.1788V46.3116C49.8047 46.3292 49.7051 46.335 49.5234 46.335C48.8672 46.335 48.6094 46.0362 48.6094 45.2921V41.7178H49.9922V40.8741H48.6094V39.2393H47.5547V40.8741H46.5586V41.7178H47.5547V45.5499C47.5547 46.7569 48.0996 47.2374 49.4004 47.2374ZM54 47.3018C55.4883 47.3018 56.3906 46.4581 56.6074 45.6026L56.6191 45.5557H55.5996L55.5762 45.6085C55.4062 45.9893 54.8789 46.3936 54.0234 46.3936C52.8984 46.3936 52.1777 45.6319 52.1484 44.3253H56.6953V43.9268C56.6953 42.0401 55.6523 40.7628 53.9355 40.7628C52.2188 40.7628 51.1055 42.0987 51.1055 44.0499V44.0557C51.1055 46.0362 52.1953 47.3018 54 47.3018ZM53.9297 41.671C54.8613 41.671 55.5527 42.2628 55.6582 43.5108H52.166C52.2773 42.3096 52.9922 41.671 53.9297 41.671Z" fill="#DDDDDD"/>
<defs>
<clipPath id="clip0_34_255">
<rect width="24" height="24" fill="white" transform="translate(17 0.190491)"/>
</clipPath>
</defs>
</svg>
