<svg width="38" height="53" viewBox="0 0 38 53" fill="none" xmlns="http://www.w3.org/2000/svg">
<g clip-path="url(#clip0_34_254)">
<path d="M14.5527 11.6467C14.082 10.6443 13.9096 9.56117 13.7401 8.50033C13.592 7.5703 13.4389 6.60954 13.0816 5.73154C12.0946 3.31008 9.71032 1.6824 7.14815 1.68092L7.13279 1.68042C7.10405 1.78497 7.08274 1.89348 7.07531 2.00893L7.02328 2.86167C6.75324 7.25665 8.85511 11.1502 12.4553 13.1421C13.1143 12.5668 13.8184 12.0728 14.5527 11.6467Z" fill="#DDDDDD"/>
<path d="M13.9993 5.35794C14.4001 6.34099 14.5621 7.35972 14.7192 8.34426C14.8788 9.34514 15.0328 10.3113 15.4292 11.1775C17.1139 10.3673 18.9467 9.93775 20.8459 9.93775C20.8514 9.93775 20.8563 9.93824 20.8618 9.93824C20.1666 4.49678 15.7592 0.556656 10.0671 0.556656C9.81486 0.556656 9.56067 0.564584 9.30351 0.580439L8.45127 0.632961C8.27636 0.643366 8.11533 0.683006 7.96619 0.741969C10.5962 1.0462 12.9652 2.82154 13.9993 5.35794Z" fill="#DDDDDD"/>
<path d="M21.2478 17.0143C23.7079 19.4744 27.7114 19.4744 30.1715 17.0143L30.8048 16.4128C30.7007 16.1794 30.5659 15.9535 30.3836 15.7474L29.8172 15.1082C27.4339 12.4137 24.2484 10.9287 20.8464 10.9287C17.4444 10.9287 14.2579 12.4132 11.8751 15.1082L11.3092 15.7474C10.952 16.1512 10.7543 16.6229 10.6978 17.105L10.8415 16.993C13.7183 14.139 18.3804 14.1464 21.2478 17.0143Z" fill="#DDDDDD"/>
<path d="M30.8628 17.7239C29.4917 19.0954 27.6584 19.8555 25.7097 19.8555C23.7609 19.8555 21.9271 19.0954 20.5472 17.7154C19.3545 16.5228 17.7511 15.8658 16.0338 15.8658C14.3164 15.8658 12.713 16.5228 11.5204 17.7154L11.4743 17.7551L10.8425 18.2486C10.9486 18.5157 11.1027 18.7718 11.3088 19.0052L11.8746 19.6449C14.2579 22.3393 17.4439 23.8238 20.846 23.8238C24.248 23.8238 27.434 22.3398 29.8168 19.6454L30.3831 19.0057C30.7538 18.5865 30.9529 18.094 30.9995 17.5936L30.8628 17.7239Z" fill="#DDDDDD"/>
</g>
<path d="M4.48242 47.3897C6.28125 47.3897 7.61719 46.3878 7.89844 44.8409V44.8292H6.83203L6.82031 44.8409C6.55664 45.8135 5.66016 46.4171 4.48242 46.4171C2.85352 46.4171 1.83398 45.087 1.83398 42.9717V42.96C1.83398 40.8448 2.85352 39.5089 4.47656 39.5089C5.64258 39.5089 6.54492 40.1944 6.82617 41.2784L6.83203 41.2901H7.89258L7.89844 41.2784C7.64648 39.6553 6.25781 38.5362 4.47656 38.5362C2.17969 38.5362 0.75 40.2354 0.75 42.96V42.9717C0.75 45.6905 2.18555 47.3897 4.48242 47.3897ZM12.1348 47.3018C13.9336 47.3018 15.0469 46.0596 15.0469 44.0381V44.0264C15.0469 41.9991 13.9336 40.7628 12.1348 40.7628C10.3359 40.7628 9.22266 41.9991 9.22266 44.0264V44.0381C9.22266 46.0596 10.3359 47.3018 12.1348 47.3018ZM12.1348 46.3995C10.9395 46.3995 10.2656 45.5264 10.2656 44.0381V44.0264C10.2656 42.5323 10.9395 41.6651 12.1348 41.6651C13.3301 41.6651 14.0039 42.5323 14.0039 44.0264V44.0381C14.0039 45.5264 13.3301 46.3995 12.1348 46.3995ZM17.0508 47.1905H18.0703V41.7178H19.5059V40.8741H18.0703V40.2003C18.0703 39.5089 18.3633 39.1514 19.0898 39.1514C19.2715 39.1514 19.4414 39.1573 19.5645 39.1807V38.3663C19.3535 38.3253 19.1309 38.3077 18.8848 38.3077C17.6836 38.3077 17.0508 38.9112 17.0508 40.171V40.8741H16.002V41.7178H17.0508V47.1905ZM21.3984 47.1905H22.418V41.7178H23.8535V40.8741H22.418V40.2003C22.418 39.5089 22.7109 39.1514 23.4375 39.1514C23.6191 39.1514 23.7891 39.1573 23.9121 39.1807V38.3663C23.7012 38.3253 23.4785 38.3077 23.2324 38.3077C22.0312 38.3077 21.3984 38.9112 21.3984 40.171V40.8741H20.3496V41.7178H21.3984V47.1905ZM27.6328 47.3018C29.1211 47.3018 30.0234 46.4581 30.2402 45.6026L30.252 45.5557H29.2324L29.209 45.6085C29.0391 45.9893 28.5117 46.3936 27.6562 46.3936C26.5312 46.3936 25.8105 45.6319 25.7812 44.3253H30.3281V43.9268C30.3281 42.0401 29.2852 40.7628 27.5684 40.7628C25.8516 40.7628 24.7383 42.0987 24.7383 44.0499V44.0557C24.7383 46.0362 25.8281 47.3018 27.6328 47.3018ZM27.5625 41.671C28.4941 41.671 29.1855 42.2628 29.291 43.5108H25.7988C25.9102 42.3096 26.625 41.671 27.5625 41.671ZM34.4883 47.3018C35.9766 47.3018 36.8789 46.4581 37.0957 45.6026L37.1074 45.5557H36.0879L36.0645 45.6085C35.8945 45.9893 35.3672 46.3936 34.5117 46.3936C33.3867 46.3936 32.666 45.6319 32.6367 44.3253H37.1836V43.9268C37.1836 42.0401 36.1406 40.7628 34.4238 40.7628C32.707 40.7628 31.5938 42.0987 31.5938 44.0499V44.0557C31.5938 46.0362 32.6836 47.3018 34.4883 47.3018ZM34.418 41.671C35.3496 41.671 36.041 42.2628 36.1465 43.5108H32.6543C32.7656 42.3096 33.4805 41.671 34.418 41.671Z" fill="#DDDDDD"/>
<defs>
<clipPath id="clip0_34_254">
<rect width="24" height="24" fill="white" transform="translate(7 0.190491)"/>
</clipPath>
</defs>
</svg>
