<svg width="50" height="50" viewBox="0 0 50 50" fill="none" xmlns="http://www.w3.org/2000/svg">
<path d="M0 25C0 11.1929 11.1929 0 25 0H27.2727C39.8246 0 50 10.1753 50 22.7273C50 37.7896 37.7896 50 22.7273 50H15C6.71573 50 0 43.2843 0 35V25Z" fill="#967259"/>
<path d="M31.5611 27.0196C33.4611 27.0196 35 28.5325 35 30.3992C35 32.2648 33.4611 33.7778 31.5611 33.7778C29.6623 33.7778 28.1223 32.2648 28.1223 30.3992C28.1223 28.5325 29.6623 27.0196 31.5611 27.0196ZM23.0833 28.958C23.9155 28.958 24.5911 29.6217 24.5911 30.4393C24.5911 31.2558 23.9155 31.9206 23.0833 31.9206H16.5078C15.6756 31.9206 15 31.2558 15 30.4393C15 29.6217 15.6756 28.958 16.5078 28.958H23.0833ZM18.4389 16C20.3389 16 21.8777 17.513 21.8777 19.3786C21.8777 21.2452 20.3389 22.7582 18.4389 22.7582C16.54 22.7582 15 21.2452 15 19.3786C15 17.513 16.54 16 18.4389 16ZM33.4933 17.8983C34.3244 17.8983 35 18.562 35 19.3786C35 20.1962 34.3244 20.8599 33.4933 20.8599H26.9178C26.0856 20.8599 25.4101 20.1962 25.4101 19.3786C25.4101 18.562 26.0856 17.8983 26.9178 17.8983H33.4933Z" fill="white"/>
</svg>
