<svg width="35" height="36" viewBox="0 0 35 36" fill="none" xmlns="http://www.w3.org/2000/svg">
<circle cx="17.5" cy="17.5238" r="17.5" fill="white"/>
<path d="M14.0278 8.65762C14.6158 8.6755 15.1851 8.77816 15.7367 8.96576H15.7918C15.8291 8.9835 15.8571 9.0031 15.8758 9.02083C16.0821 9.0871 16.2771 9.16176 16.4638 9.26443L16.8185 9.4231C16.9585 9.49776 17.1265 9.63683 17.2198 9.69376C17.3131 9.74883 17.4158 9.80576 17.4998 9.87016C18.5367 9.07776 19.7958 8.64843 21.0931 8.65762C21.6821 8.65762 22.2701 8.74083 22.8291 8.92843C26.2741 10.0484 27.5154 13.8284 26.4785 17.1324C25.8905 18.8208 24.9291 20.3618 23.6701 21.6208C21.8678 23.3662 19.8901 24.9155 17.7611 26.2502L17.5278 26.3911L17.2851 26.2408C15.1487 24.9155 13.1598 23.3662 11.3407 21.6115C10.0901 20.3524 9.12779 18.8208 8.53046 17.1324C7.47579 13.8284 8.71713 10.0484 12.1994 8.90883C12.4701 8.8155 12.7491 8.75016 13.0291 8.71376H13.1411C13.4034 8.6755 13.6638 8.65762 13.9251 8.65762H14.0278ZM22.3438 11.6071C21.9611 11.4755 21.5411 11.6818 21.4011 12.0738C21.2705 12.4658 21.4758 12.8951 21.8678 13.0342C22.4661 13.2582 22.8665 13.8471 22.8665 14.4995V14.5284C22.8487 14.7422 22.9131 14.9484 23.0438 15.1071C23.1745 15.2658 23.3705 15.3582 23.5758 15.3778C23.9585 15.3675 24.2851 15.0604 24.3131 14.6675V14.5564C24.3411 13.2488 23.5487 12.0644 22.3438 11.6071Z" fill="#FF0000"/>
</svg>
