<svg width="16" height="16" viewBox="0 0 16 16" fill="none" xmlns="http://www.w3.org/2000/svg">
<path d="M12.2155 12.2407C12.5054 11.9528 12.9701 11.9528 13.26 12.2407L15.176 13.7873H15.2093C15.5969 14.1791 15.5969 14.8143 15.2093 15.2061C14.8216 15.5979 14.1932 15.5979 13.8055 15.2061L12.2155 13.3839L12.1552 13.3158C12.0428 13.1735 11.9807 12.9961 11.9807 12.8123C11.9807 12.5978 12.0652 12.3921 12.2155 12.2407ZM6.93323 0.5C8.63943 0.5 10.2757 1.18508 11.4822 2.40452C12.6887 3.62397 13.3665 5.27789 13.3665 7.00244C13.3665 10.5936 10.4862 13.5049 6.93323 13.5049C3.38026 13.5049 0.5 10.5936 0.5 7.00244C0.5 3.41124 3.38026 0.5 6.93323 0.5Z" fill="black" fill-opacity="0.2"/>
</svg>
