<svg width="48" height="48" viewBox="0 0 48 48" fill="none" xmlns="http://www.w3.org/2000/svg">
<path d="M19.5732 26.0479C21.2182 26.0479 22.5365 27.3791 22.5365 29.0357V33.0129C22.5365 34.6579 21.2182 35.9995 19.5732 35.9995H15.6299C13.9966 35.9995 12.6666 34.6579 12.6666 33.0129V29.0357C12.6666 27.3791 13.9966 26.0479 15.6299 26.0479H19.5732ZM33.0366 26.0479C34.6699 26.0479 35.9999 27.3791 35.9999 29.0357V33.0129C35.9999 34.6579 34.6699 35.9995 33.0366 35.9995H29.0933C27.4483 35.9995 26.1299 34.6579 26.1299 33.0129V29.0357C26.1299 27.3791 27.4483 26.0479 29.0933 26.0479H33.0366ZM19.5732 12.6667C21.2182 12.6667 22.5365 14.0083 22.5365 15.6545V19.6316C22.5365 21.2883 21.2182 22.6183 19.5732 22.6183H15.6299C13.9966 22.6183 12.6666 21.2883 12.6666 19.6316V15.6545C12.6666 14.0083 13.9966 12.6667 15.6299 12.6667H19.5732ZM33.0366 12.6667C34.6699 12.6667 35.9999 14.0083 35.9999 15.6545V19.6316C35.9999 21.2883 34.6699 22.6183 33.0366 22.6183H29.0933C27.4483 22.6183 26.1299 21.2883 26.1299 19.6316V15.6545C26.1299 14.0083 27.4483 12.6667 29.0933 12.6667H33.0366Z" fill="#967259"/>
</svg>
